<svg version="1.1" xmlns="http://www.w3.org/2000/svg" xmlns:xlink="http://www.w3.org/1999/xlink" width="293.47223" height="244.44444" viewBox="0,0,293.47223,244.44444"><g transform="translate(-93.4375,-53.81946)"><g data-paper-data="{&quot;isPaintingLayer&quot;:true}" fill-rule="nonzero" stroke-linejoin="miter" stroke-miterlimit="10" stroke-dasharray="" stroke-dashoffset="0" style="mix-blend-mode: normal"><g><g fill="#ffffff" stroke="none" stroke-width="0"><path d="M385.65973,241.42362c0,15.36042 -35.5374,27.8125 -79.375,27.8125c-43.8376,0 -79.375,-12.45208 -79.375,-27.8125c0,-1.46479 -0.19663,-20.54929 -0.16523,-22.08451c0.35181,-17.20423 40.99414,-27.39465 80.65134,-27.39465c37.81174,0 75.55942,9.81961 77.98687,25.55676c0.35836,2.32326 0.27702,21.81098 0.27702,23.92241z" stroke-linecap="butt"/><path d="M226.90973,243.61112v-25.625" stroke-linecap="round"/><path d="M377.53473,234.23612v17.5" stroke-linecap="round"/><path d="M385.65973,217.98612v25.625" stroke-linecap="round"/><path d="M385.65973,219.54862c0,13.99944 -29.51895,25.58309 -67.937,27.52588c-3.73487,0.18887 -7.55385,0.28662 -11.438,0.28662c-43.8376,0 -79.375,-12.45208 -79.375,-27.8125c0,-15.36042 35.5374,-27.8125 79.375,-27.8125c43.8376,0 79.375,12.45208 79.375,27.8125z" stroke-linecap="butt"/><path d="M364.86112,220.97223c0,11.04569 -26.11673,20 -58.33334,20c-32.21661,0 -58.33333,-8.95431 -58.33333,-20c0,-11.04569 26.11672,-20 58.33333,-20c32.21661,0 58.33334,8.95431 58.33334,20z" stroke-linecap="butt"/><path d="M384.30556,220.97223h-20" stroke-linecap="round"/><path d="M363.75001,226.52778l15,3.33334" stroke-linecap="round"/><path d="M350.97223,234.30556l10.9375,5.55555v20" stroke-linecap="round"/><path d="M330.97223,240.41667l7.1875,6.31945v19.375" stroke-linecap="round"/><path d="M303.78473,267.98612v-20.625l0.52083,-6.38889" stroke-linecap="round"/><path d="M277.53473,266.11112v-20l7.32639,-6.25" stroke-linecap="round"/><path d="M249.40973,259.86112v-20.625l13.22916,-4.375" stroke-linecap="round"/><path d="M236.28473,252.98612v-20l18.02083,-3.125" stroke-linecap="round"/><path d="M247.63889,220.41667h-20.55555" stroke-linecap="round"/><path d="M252.08334,213.19445l-19.44445,-3.33334" stroke-linecap="round"/><path d="M267.08334,205.41667l-13.33333,-6.11111" stroke-linecap="round"/><path d="M275.97223,194.30556l7.77778,6.66666" stroke-linecap="round"/><path d="M308.19445,199.86111l0.55556,-6.66666" stroke-linecap="round"/><path d="M325.97223,201.52778l7.77778,-6.66666" stroke-linecap="round"/><path d="M362.63889,201.52778l-14.44444,4.44445" stroke-linecap="round"/><path d="M380.41667,211.52778l-17.22222,2.22223" stroke-linecap="round"/></g><path d="M339.30556,221.52778c0.55556,7.95159 -25.30623,5.70587 -25.30623,5.70587c0,0 5.33729,3.46088 4.08802,4.07695c-2.63901,1.30142 -16.05283,0.21717 -22.3929,0.21717c-7.39716,0 2.19456,-4.63231 2.19456,-4.63231c0,0 -23.58345,1.43188 -23.58345,-5.92325c0,-5.04945 7.35868,-6.18193 14.25505,-8.18173c5.67517,-1.64568 14.02949,-5.70715 18.24495,-5.70715c5.30349,0 11.63944,4.16956 17.55434,5.92838c7.22787,2.14924 14.59284,3.46622 14.94566,8.51606z" fill="#e63057" stroke="#000000" stroke-width="2.5" stroke-linecap="butt"/><g fill="#312725" stroke="none" stroke-width="0" stroke-linecap="butt"><path d="M249.30556,260.41667v-20.55556l13.39344,-4.56102l19.58974,4.84327l-4.64985,6.38442v20.55556z"/><path d="M304.30556,269.30556v-20.55555l1.10756,-7.25831l25.61362,-1.5304l7.1677,5.45537l1.11111,20.55555z"/><path d="M361.52778,260.97223v-21.11111l-8.96277,-6.52115l11.73488,-6.46568l13.339,4.09795v23.33333z"/><path d="M227.08334,245.41667l0.55555,-24.44444l20.64709,-0.12959l5.30948,8.73761l-16.51213,4.16976l-0.55555,21.11111z"/><path d="M233.19445,209.30556c0,0 6.85118,-4.5367 10.66667,-6.44445c3.04746,-1.52373 10.44444,-4.11111 10.44444,-4.11111l13.33333,7.22222l-15.55555,7.22223z"/><path d="M277.63889,194.30556l31.66667,-2.22222l-0.55556,8.33333l-24.44444,0.55556z"/><path d="M333.75,193.19445l31.11112,6.66667l-15.55556,6.1111l-23.88889,-4.44444z"/><path d="M380.97222,212.08334c0,0 3.06235,2.48122 3.83284,3.85097c0.88126,1.56668 1.16717,5.03792 1.16717,5.03792l-20,-0.55556l-2.77778,-6.1111z"/></g><g fill="none" stroke="#000000" stroke-width="2.5"><path d="M385.65973,241.42362c0,15.36042 -35.5374,27.8125 -79.375,27.8125c-43.8376,0 -79.375,-12.45208 -79.375,-27.8125c0,-1.46479 -0.19663,-20.54929 -0.16523,-22.08451c0.35181,-17.20423 40.99414,-27.39465 80.65134,-27.39465c37.81174,0 75.55942,9.81961 77.98687,25.55676c0.35836,2.32326 0.27702,21.81098 0.27702,23.92241z" stroke-linecap="butt"/><path d="M226.90973,243.61112v-25.625" stroke-linecap="round"/><path d="M377.53473,234.23612v17.5" stroke-linecap="round"/><path d="M385.65973,217.98612v25.625" stroke-linecap="round"/><path d="M385.65973,219.54862c0,13.99944 -29.51895,25.58309 -67.937,27.52588c-3.73487,0.18887 -7.55385,0.28662 -11.438,0.28662c-43.8376,0 -79.375,-12.45208 -79.375,-27.8125c0,-15.36042 35.5374,-27.8125 79.375,-27.8125c43.8376,0 79.375,12.45208 79.375,27.8125z" stroke-linecap="butt"/><path d="M364.86112,220.97223c0,11.04569 -26.11673,20 -58.33334,20c-32.21661,0 -58.33333,-8.95431 -58.33333,-20c0,-11.04569 26.11672,-20 58.33333,-20c32.21661,0 58.33334,8.95431 58.33334,20z" stroke-linecap="butt"/><path d="M384.30556,220.97223h-20" stroke-linecap="round"/><path d="M363.75001,226.52778l15,3.33334" stroke-linecap="round"/><path d="M350.97223,234.30556l10.9375,5.55555v20" stroke-linecap="round"/><path d="M330.97223,240.41667l7.1875,6.31945v19.375" stroke-linecap="round"/><path d="M303.78473,267.98612v-20.625l0.52083,-6.38889" stroke-linecap="round"/><path d="M277.53473,266.11112v-20l7.32639,-6.25" stroke-linecap="round"/><path d="M249.40973,259.86112v-20.625l13.22916,-4.375" stroke-linecap="round"/><path d="M236.28473,252.98612v-20l18.02083,-3.125" stroke-linecap="round"/><path d="M247.63889,220.41667h-20.55555" stroke-linecap="round"/><path d="M252.08334,213.19445l-19.44445,-3.33334" stroke-linecap="round"/><path d="M267.08334,205.41667l-13.33333,-6.11111" stroke-linecap="round"/><path d="M275.97223,194.30556l7.77778,6.66666" stroke-linecap="round"/><path d="M308.19445,199.86111l0.55556,-6.66666" stroke-linecap="round"/><path d="M325.97223,201.52778l7.77778,-6.66666" stroke-linecap="round"/><path d="M362.63889,201.52778l-14.44444,4.44445" stroke-linecap="round"/><path d="M380.41667,211.52778l-17.22222,2.22223" stroke-linecap="round"/></g></g><g><g fill="#ffffff" stroke="none" stroke-width="0"><path d="M385.65973,213.64584c0,15.36042 -35.5374,27.8125 -79.375,27.8125c-43.8376,0 -79.375,-12.45208 -79.375,-27.8125c0,-1.46479 -0.19663,-20.54929 -0.16523,-22.08451c0.35181,-17.20423 40.99414,-27.39465 80.65134,-27.39465c37.81174,0 75.55942,9.81961 77.98687,25.55676c0.35836,2.32326 0.27702,21.81098 0.27702,23.92241z" stroke-linecap="butt"/><path d="M226.90973,215.83334v-25.625" stroke-linecap="round"/><path d="M377.53473,206.45834v17.5" stroke-linecap="round"/><path d="M385.65973,190.20834v25.625" stroke-linecap="round"/><path d="M385.65973,191.77084c0,13.99944 -29.51895,25.58309 -67.937,27.52588c-3.73487,0.18887 -7.55385,0.28662 -11.438,0.28662c-43.8376,0 -79.375,-12.45208 -79.375,-27.8125c0,-15.36042 35.5374,-27.8125 79.375,-27.8125c43.8376,0 79.375,12.45208 79.375,27.8125z" stroke-linecap="butt"/><path d="M364.86112,193.19445c0,11.04569 -26.11673,20 -58.33334,20c-32.21661,0 -58.33333,-8.95431 -58.33333,-20c0,-11.04569 26.11672,-20 58.33333,-20c32.21661,0 58.33334,8.95431 58.33334,20z" stroke-linecap="butt"/><path d="M384.30556,193.19445h-20" stroke-linecap="round"/><path d="M363.75001,198.75001l15,3.33334" stroke-linecap="round"/><path d="M350.97223,206.52779l10.9375,5.55555v20" stroke-linecap="round"/><path d="M330.97223,212.6389l7.1875,6.31945v19.375" stroke-linecap="round"/><path d="M303.78473,240.20834v-20.625l0.52083,-6.38889" stroke-linecap="round"/><path d="M277.53473,238.33334v-20l7.32639,-6.25" stroke-linecap="round"/><path d="M249.40973,232.08334v-20.625l13.22916,-4.375" stroke-linecap="round"/><path d="M236.28473,225.20834v-20l18.02083,-3.125" stroke-linecap="round"/><path d="M227.08334,192.6389h20.55555" stroke-linecap="round"/><path d="M252.08334,185.41668l-19.44445,-3.33334" stroke-linecap="round"/><path d="M267.08334,177.6389l-13.33333,-6.11111" stroke-linecap="round"/><path d="M275.97223,166.52779l7.77778,6.66666" stroke-linecap="round"/><path d="M308.75001,165.41668l-0.55556,6.66666" stroke-linecap="round"/><path d="M333.75001,167.08334l-7.77778,6.66666" stroke-linecap="round"/><path d="M362.63889,173.75001l-14.44444,4.44445" stroke-linecap="round"/><path d="M363.19445,185.97223l17.22222,-2.22223" stroke-linecap="round"/></g><path d="M339.30556,193.75001c0.55556,7.95159 -25.30623,5.70587 -25.30623,5.70587c0,0 5.33729,3.46088 4.08802,4.07695c-2.63901,1.30142 -16.05283,0.21717 -22.3929,0.21717c-7.39716,0 2.19456,-4.63231 2.19456,-4.63231c0,0 -23.58345,1.43188 -23.58345,-5.92325c0,-5.04945 7.35868,-6.18193 14.25505,-8.18173c5.67517,-1.64568 14.02949,-5.70715 18.24495,-5.70715c5.30349,0 11.63944,4.16956 17.55434,5.92838c7.22787,2.14924 14.59284,3.46622 14.94566,8.51606z" fill="#e63057" stroke="#000000" stroke-width="2.5" stroke-linecap="butt"/><g fill="#312725" stroke="none" stroke-width="0" stroke-linecap="butt"><path d="M249.30556,232.6389v-20.55555l13.39344,-4.56102l19.58974,4.84327l-4.64985,6.38442v20.55556z"/><path d="M304.30556,241.52779v-20.55555l1.10756,-7.25831l25.61362,-1.5304l7.1677,5.45537l1.11111,20.55555z"/><path d="M361.52778,233.19445v-21.11111l-8.96277,-6.52115l11.73488,-6.46568l13.339,4.09795v23.33333z"/><path d="M227.08334,217.6389l0.55555,-24.44444l20.64709,-0.12959l5.30948,8.73761l-16.51213,4.16976l-0.55555,21.11111z"/><path d="M233.19445,181.52779c0,0 6.85118,-4.5367 10.66667,-6.44445c3.04746,-1.52373 10.44444,-4.11111 10.44444,-4.11111l13.33333,7.22222l-15.55555,7.22223z"/><path d="M277.63889,166.52779l31.66667,-2.22222l-0.55556,8.33333l-24.44444,0.55556z"/><path d="M333.75,165.41668l31.11112,6.66667l-15.55556,6.1111l-23.88889,-4.44444z"/><path d="M380.97222,184.30557c0,0 3.06235,2.48122 3.83284,3.85097c0.88126,1.56668 1.16717,5.03792 1.16717,5.03792l-20,-0.55556l-2.77778,-6.1111z"/></g><g fill="none" stroke="#000000" stroke-width="2.5"><path d="M385.65973,213.64584c0,15.36042 -35.5374,27.8125 -79.375,27.8125c-43.8376,0 -79.375,-12.45208 -79.375,-27.8125c0,-1.46479 -0.19663,-20.54929 -0.16523,-22.08451c0.35181,-17.20423 40.99414,-27.39465 80.65134,-27.39465c37.81174,0 75.55942,9.81961 77.98687,25.55676c0.35836,2.32326 0.27702,21.81098 0.27702,23.92241z" stroke-linecap="butt"/><path d="M226.90973,215.83334v-25.625" stroke-linecap="round"/><path d="M377.53473,206.45834v17.5" stroke-linecap="round"/><path d="M385.65973,190.20834v25.625" stroke-linecap="round"/><path d="M385.65973,191.77084c0,13.99944 -29.51895,25.58309 -67.937,27.52588c-3.73487,0.18887 -7.55385,0.28662 -11.438,0.28662c-43.8376,0 -79.375,-12.45208 -79.375,-27.8125c0,-15.36042 35.5374,-27.8125 79.375,-27.8125c43.8376,0 79.375,12.45208 79.375,27.8125z" stroke-linecap="butt"/><path d="M364.86112,193.19445c0,11.04569 -26.11673,20 -58.33334,20c-32.21661,0 -58.33333,-8.95431 -58.33333,-20c0,-11.04569 26.11672,-20 58.33333,-20c32.21661,0 58.33334,8.95431 58.33334,20z" stroke-linecap="butt"/><path d="M384.30556,193.19445h-20" stroke-linecap="round"/><path d="M363.75001,198.75001l15,3.33334" stroke-linecap="round"/><path d="M350.97223,206.52779l10.9375,5.55555v20" stroke-linecap="round"/><path d="M330.97223,212.6389l7.1875,6.31945v19.375" stroke-linecap="round"/><path d="M303.78473,240.20834v-20.625l0.52083,-6.38889" stroke-linecap="round"/><path d="M277.53473,238.33334v-20l7.32639,-6.25" stroke-linecap="round"/><path d="M249.40973,232.08334v-20.625l13.22916,-4.375" stroke-linecap="round"/><path d="M236.28473,225.20834v-20l18.02083,-3.125" stroke-linecap="round"/><path d="M227.08334,192.6389h20.55555" stroke-linecap="round"/><path d="M252.08334,185.41668l-19.44445,-3.33334" stroke-linecap="round"/><path d="M267.08334,177.6389l-13.33333,-6.11111" stroke-linecap="round"/><path d="M275.97223,166.52779l7.77778,6.66666" stroke-linecap="round"/><path d="M308.75001,165.41668l-0.55556,6.66666" stroke-linecap="round"/><path d="M333.75001,167.08334l-7.77778,6.66666" stroke-linecap="round"/><path d="M362.63889,173.75001l-14.44444,4.44445" stroke-linecap="round"/><path d="M363.19445,185.97223l17.22222,-2.22223" stroke-linecap="round"/></g></g><g><g fill="#ffffff" stroke="none" stroke-width="0"><path d="M385.65972,185.86806c0,15.36042 -35.5374,27.8125 -79.375,27.8125c-43.8376,0 -79.375,-12.45208 -79.375,-27.8125c0,-1.46479 -0.19663,-20.54929 -0.16523,-22.08452c0.35181,-17.20423 40.99414,-27.39465 80.65134,-27.39465c37.81174,0 75.55942,9.81961 77.98687,25.55676c0.35836,2.32326 0.27702,21.81099 0.27702,23.92241z" stroke-linecap="butt"/><path d="M226.90972,162.43056v25.625" stroke-linecap="round"/><path d="M377.53472,196.18056v-17.5" stroke-linecap="round"/><path d="M385.65972,162.43056v25.625" stroke-linecap="round"/><path d="M385.65972,163.99306c0,13.99944 -29.51895,25.58308 -67.937,27.52587c-3.73487,0.18887 -7.55385,0.28663 -11.438,0.28663c-43.8376,0 -79.375,-12.45208 -79.375,-27.8125c0,-15.36042 35.5374,-27.8125 79.375,-27.8125c43.8376,0 79.375,12.45208 79.375,27.8125z" stroke-linecap="butt"/><path d="M364.86111,165.41667c0,11.04569 -26.11673,20 -58.33334,20c-32.21661,0 -58.33333,-8.95431 -58.33333,-20c0,-11.04569 26.11672,-20 58.33333,-20c32.21661,0 58.33334,8.95431 58.33334,20z" stroke-linecap="butt"/><path d="M364.30556,165.41667h20" stroke-linecap="round"/><path d="M363.75,170.97223l15,3.33334" stroke-linecap="round"/><path d="M350.97222,178.75001l10.9375,5.55556v20" stroke-linecap="round"/><path d="M330.97222,184.86112l7.1875,6.31945v19.375" stroke-linecap="round"/><path d="M303.78473,212.43056v-20.625l0.52083,-6.38889" stroke-linecap="round"/><path d="M277.53472,210.55556v-20l7.32639,-6.25" stroke-linecap="round"/><path d="M249.40973,204.30556v-20.625l13.22916,-4.375" stroke-linecap="round"/><path d="M236.28472,197.43056v-20l18.02084,-3.125" stroke-linecap="round"/><path d="M247.63889,164.86112h-20.55555" stroke-linecap="round"/><path d="M232.63888,154.30557l19.44445,3.33333" stroke-linecap="round"/><path d="M267.08333,149.86112l-13.33333,-6.11111" stroke-linecap="round"/><path d="M275.97222,138.75l7.77778,6.66667" stroke-linecap="round"/><path d="M308.75,137.6389l-0.55556,6.66667" stroke-linecap="round"/><path d="M333.75,139.30556l-7.77778,6.66666" stroke-linecap="round"/><path d="M362.63889,145.97223l-14.44444,4.44445" stroke-linecap="round"/><path d="M380.41666,155.97223l-17.22222,2.22222" stroke-linecap="round"/></g><path d="M339.30556,165.97223c0.55556,7.95159 -25.30623,5.70587 -25.30623,5.70587c0,0 5.33729,3.46088 4.08802,4.07695c-2.63901,1.30142 -16.05283,0.21717 -22.3929,0.21717c-7.39716,0 2.19456,-4.63231 2.19456,-4.63231c0,0 -23.58345,1.43188 -23.58345,-5.92325c0,-5.04945 7.35868,-6.18192 14.25505,-8.18173c5.67517,-1.64568 14.02949,-5.70715 18.24495,-5.70715c5.30349,0 11.63944,4.16956 17.55434,5.92838c7.22787,2.14924 14.59284,3.46622 14.94566,8.51606z" fill="#e63057" stroke="#000000" stroke-width="2.5" stroke-linecap="butt"/><g fill="#312725" stroke="none" stroke-width="0" stroke-linecap="butt"><path d="M249.30556,204.86112v-20.55555l13.39344,-4.56102l19.58974,4.84327l-4.64985,6.38442v20.55555z"/><path d="M304.30556,213.75001v-20.55555l1.10756,-7.2583l25.61362,-1.5304l7.1677,5.45537l1.11111,20.55555z"/><path d="M361.52778,205.41667v-21.11111l-8.96277,-6.52115l11.73488,-6.46568l13.339,4.09795v23.33333z"/><path d="M227.08333,189.86112l0.55555,-24.44444l20.64709,-0.1296l5.30948,8.73761l-16.51213,4.16976l-0.55555,21.11111z"/><path d="M233.19444,153.75c0,0 6.85118,-4.53669 10.66667,-6.44444c3.04746,-1.52373 10.44445,-4.11111 10.44445,-4.11111l13.33333,7.22222l-15.55555,7.22222z"/><path d="M277.63889,138.75l31.66667,-2.22222l-0.55556,8.33333l-24.44445,0.55556z"/><path d="M333.75,137.6389l31.11111,6.66667l-15.55556,6.11111l-23.88889,-4.44444z"/><path d="M380.97222,156.52779c0,0 3.06235,2.48123 3.83284,3.85097c0.88126,1.56668 1.16717,5.03792 1.16717,5.03792l-20,-0.55556l-2.77778,-6.11111z"/></g><g fill="none" stroke="#000000" stroke-width="2.5"><path d="M385.65972,185.86806c0,15.36042 -35.5374,27.8125 -79.375,27.8125c-43.8376,0 -79.375,-12.45208 -79.375,-27.8125c0,-1.46479 -0.19663,-20.54929 -0.16523,-22.08452c0.35181,-17.20423 40.99414,-27.39465 80.65134,-27.39465c37.81174,0 75.55942,9.81961 77.98687,25.55676c0.35836,2.32326 0.27702,21.81099 0.27702,23.92241z" stroke-linecap="butt"/><path d="M226.90972,162.43056v25.625" stroke-linecap="round"/><path d="M377.53472,196.18056v-17.5" stroke-linecap="round"/><path d="M385.65972,162.43056v25.625" stroke-linecap="round"/><path d="M385.65972,163.99306c0,13.99944 -29.51895,25.58308 -67.937,27.52587c-3.73487,0.18887 -7.55385,0.28663 -11.438,0.28663c-43.8376,0 -79.375,-12.45208 -79.375,-27.8125c0,-15.36042 35.5374,-27.8125 79.375,-27.8125c43.8376,0 79.375,12.45208 79.375,27.8125z" stroke-linecap="butt"/><path d="M364.86111,165.41667c0,11.04569 -26.11673,20 -58.33334,20c-32.21661,0 -58.33333,-8.95431 -58.33333,-20c0,-11.04569 26.11672,-20 58.33333,-20c32.21661,0 58.33334,8.95431 58.33334,20z" stroke-linecap="butt"/><path d="M364.30556,165.41667h20" stroke-linecap="round"/><path d="M363.75,170.97223l15,3.33334" stroke-linecap="round"/><path d="M350.97222,178.75001l10.9375,5.55556v20" stroke-linecap="round"/><path d="M330.97222,184.86112l7.1875,6.31945v19.375" stroke-linecap="round"/><path d="M303.78473,212.43056v-20.625l0.52083,-6.38889" stroke-linecap="round"/><path d="M277.53472,210.55556v-20l7.32639,-6.25" stroke-linecap="round"/><path d="M249.40973,204.30556v-20.625l13.22916,-4.375" stroke-linecap="round"/><path d="M236.28472,197.43056v-20l18.02084,-3.125" stroke-linecap="round"/><path d="M247.63889,164.86112h-20.55555" stroke-linecap="round"/><path d="M232.63888,154.30557l19.44445,3.33333" stroke-linecap="round"/><path d="M267.08333,149.86112l-13.33333,-6.11111" stroke-linecap="round"/><path d="M275.97222,138.75l7.77778,6.66667" stroke-linecap="round"/><path d="M308.75,137.6389l-0.55556,6.66667" stroke-linecap="round"/><path d="M333.75,139.30556l-7.77778,6.66666" stroke-linecap="round"/><path d="M362.63889,145.97223l-14.44444,4.44445" stroke-linecap="round"/><path d="M380.41666,155.97223l-17.22222,2.22222" stroke-linecap="round"/></g></g><g><g fill="#ffffff" stroke="none" stroke-width="0"><path d="M385.65972,158.64584c0,15.36042 -35.5374,27.8125 -79.375,27.8125c-43.8376,0 -79.375,-12.45208 -79.375,-27.8125c0,-1.46479 -0.19663,-20.54929 -0.16523,-22.08452c0.35181,-17.20423 40.99414,-27.39465 80.65134,-27.39465c37.81174,0 75.55942,9.81961 77.98687,25.55675c0.35836,2.32326 0.27702,21.81099 0.27702,23.92241z" stroke-linecap="butt"/><path d="M226.90972,135.20834v25.625" stroke-linecap="round"/><path d="M377.53472,151.45834v17.5" stroke-linecap="round"/><path d="M385.65972,135.20834v25.625" stroke-linecap="round"/><path d="M385.65972,136.77084c0,13.99944 -29.51895,25.58308 -67.937,27.52587c-3.73487,0.18887 -7.55385,0.28663 -11.438,0.28663c-43.8376,0 -79.375,-12.45208 -79.375,-27.8125c0,-15.36042 35.5374,-27.8125 79.375,-27.8125c43.8376,0 79.375,12.45208 79.375,27.8125z" stroke-linecap="butt"/><path d="M364.86111,138.19445c0,11.04569 -26.11673,20 -58.33334,20c-32.21661,0 -58.33333,-8.95431 -58.33333,-20c0,-11.04569 26.11672,-20 58.33333,-20c32.21661,0 58.33334,8.95431 58.33334,20z" stroke-linecap="butt"/><path d="M384.30556,138.19445h-20" stroke-linecap="round"/><path d="M363.75,143.75l15,3.33334" stroke-linecap="round"/><path d="M350.97222,151.52778l10.9375,5.55555v20" stroke-linecap="round"/><path d="M330.97222,157.63889l7.1875,6.31945v19.375" stroke-linecap="round"/><path d="M303.78473,185.20834v-20.625l0.52083,-6.38889" stroke-linecap="round"/><path d="M277.53472,183.33334v-20l7.32639,-6.25" stroke-linecap="round"/><path d="M249.40973,177.08334v-20.625l13.22916,-4.375" stroke-linecap="round"/><path d="M236.28472,170.20834v-20l18.02084,-3.125" stroke-linecap="round"/><path d="M227.08334,137.63889h20.55555" stroke-linecap="round"/><path d="M252.08333,130.41667l-19.44445,-3.33334" stroke-linecap="round"/><path d="M267.08333,122.63889l-13.33333,-6.11111" stroke-linecap="round"/><path d="M275.97222,111.52778l7.77778,6.66666" stroke-linecap="round"/><path d="M308.75,110.41667l-0.55556,6.66667" stroke-linecap="round"/><path d="M333.75,112.08334l-7.77778,6.66666" stroke-linecap="round"/><path d="M362.63889,118.75l-14.44444,4.44445" stroke-linecap="round"/><path d="M363.19444,130.97223l17.22222,-2.22223" stroke-linecap="round"/></g><path d="M339.30556,138.75c0.55556,7.95159 -25.30623,5.70587 -25.30623,5.70587c0,0 5.33729,3.46088 4.08802,4.07695c-2.63901,1.30142 -16.05283,0.21717 -22.3929,0.21717c-7.39716,0 2.19456,-4.63231 2.19456,-4.63231c0,0 -23.58345,1.43188 -23.58345,-5.92325c0,-5.04945 7.35868,-6.18192 14.25505,-8.18173c5.67517,-1.64568 14.02949,-5.70715 18.24495,-5.70715c5.30349,0 11.63944,4.16956 17.55434,5.92838c7.22787,2.14924 14.59284,3.46622 14.94566,8.51606z" fill="#e63057" stroke="#000000" stroke-width="2.5" stroke-linecap="butt"/><g fill="#312725" stroke="none" stroke-width="0" stroke-linecap="butt"><path d="M249.30556,177.63889v-20.55555l13.39344,-4.56102l19.58974,4.84327l-4.64985,6.38442v20.55555z"/><path d="M304.30556,186.52778v-20.55555l1.10756,-7.25831l25.61362,-1.5304l7.1677,5.45537l1.11111,20.55555z"/><path d="M361.52778,178.19445v-21.11111l-8.96277,-6.52115l11.73488,-6.46568l13.339,4.09794v23.33333z"/><path d="M227.08333,162.63889l0.55555,-24.44444l20.64709,-0.12959l5.30948,8.73761l-16.51213,4.16977l-0.55555,21.1111z"/><path d="M233.19444,126.52778c0,0 6.85118,-4.5367 10.66667,-6.44445c3.04746,-1.52373 10.44445,-4.11111 10.44445,-4.11111l13.33333,7.22222l-15.55555,7.22223z"/><path d="M277.63889,111.52778l31.66667,-2.22222l-0.55556,8.33333l-24.44445,0.55556z"/><path d="M333.75,110.41667l31.11111,6.66667l-15.55556,6.1111l-23.88889,-4.44444z"/><path d="M380.97222,129.30556c0,0 3.06235,2.48122 3.83284,3.85097c0.88126,1.56668 1.16717,5.03792 1.16717,5.03792l-20,-0.55556l-2.77778,-6.11111z"/></g><g fill="none" stroke="#000000" stroke-width="2.5"><path d="M385.65972,158.64584c0,15.36042 -35.5374,27.8125 -79.375,27.8125c-43.8376,0 -79.375,-12.45208 -79.375,-27.8125c0,-1.46479 -0.19663,-20.54929 -0.16523,-22.08452c0.35181,-17.20423 40.99414,-27.39465 80.65134,-27.39465c37.81174,0 75.55942,9.81961 77.98687,25.55675c0.35836,2.32326 0.27702,21.81099 0.27702,23.92241z" stroke-linecap="butt"/><path d="M226.90972,135.20834v25.625" stroke-linecap="round"/><path d="M377.53472,151.45834v17.5" stroke-linecap="round"/><path d="M385.65972,135.20834v25.625" stroke-linecap="round"/><path d="M385.65972,136.77084c0,13.99944 -29.51895,25.58308 -67.937,27.52587c-3.73487,0.18887 -7.55385,0.28663 -11.438,0.28663c-43.8376,0 -79.375,-12.45208 -79.375,-27.8125c0,-15.36042 35.5374,-27.8125 79.375,-27.8125c43.8376,0 79.375,12.45208 79.375,27.8125z" stroke-linecap="butt"/><path d="M364.86111,138.19445c0,11.04569 -26.11673,20 -58.33334,20c-32.21661,0 -58.33333,-8.95431 -58.33333,-20c0,-11.04569 26.11672,-20 58.33333,-20c32.21661,0 58.33334,8.95431 58.33334,20z" stroke-linecap="butt"/><path d="M384.30556,138.19445h-20" stroke-linecap="round"/><path d="M363.75,143.75l15,3.33334" stroke-linecap="round"/><path d="M350.97222,151.52778l10.9375,5.55555v20" stroke-linecap="round"/><path d="M330.97222,157.63889l7.1875,6.31945v19.375" stroke-linecap="round"/><path d="M303.78473,185.20834v-20.625l0.52083,-6.38889" stroke-linecap="round"/><path d="M277.53472,183.33334v-20l7.32639,-6.25" stroke-linecap="round"/><path d="M249.40973,177.08334v-20.625l13.22916,-4.375" stroke-linecap="round"/><path d="M236.28472,170.20834v-20l18.02084,-3.125" stroke-linecap="round"/><path d="M227.08334,137.63889h20.55555" stroke-linecap="round"/><path d="M252.08333,130.41667l-19.44445,-3.33334" stroke-linecap="round"/><path d="M267.08333,122.63889l-13.33333,-6.11111" stroke-linecap="round"/><path d="M275.97222,111.52778l7.77778,6.66666" stroke-linecap="round"/><path d="M308.75,110.41667l-0.55556,6.66667" stroke-linecap="round"/><path d="M333.75,112.08334l-7.77778,6.66666" stroke-linecap="round"/><path d="M362.63889,118.75l-14.44444,4.44445" stroke-linecap="round"/><path d="M363.19444,130.97223l17.22222,-2.22223" stroke-linecap="round"/></g></g><g><g fill="#ffffff" stroke="none" stroke-width="0"><path d="M385.65973,131.42362c0,15.36042 -35.5374,27.8125 -79.375,27.8125c-43.8376,0 -79.375,-12.45208 -79.375,-27.8125c0,-1.46479 -0.19663,-20.54929 -0.16523,-22.08452c0.35181,-17.20423 40.99414,-27.39465 80.65134,-27.39465c37.81174,0 75.55942,9.81961 77.98687,25.55675c0.35836,2.32327 0.27702,21.81099 0.27702,23.92241z" stroke-linecap="butt"/><path d="M226.90973,107.98612v25.625" stroke-linecap="round"/><path d="M377.53473,124.23612v17.5" stroke-linecap="round"/><path d="M385.65973,107.98612v25.625" stroke-linecap="round"/><path d="M385.65973,109.54862c0,13.99944 -29.51894,25.58308 -67.937,27.52588c-3.73487,0.18887 -7.55386,0.28663 -11.438,0.28663c-43.8376,0 -79.375,-12.45208 -79.375,-27.8125c0,-15.36042 35.5374,-27.8125 79.375,-27.8125c43.8376,0 79.375,12.45208 79.375,27.8125z" stroke-linecap="butt"/><path d="M364.86112,110.97223c0,11.04569 -26.11672,20 -58.33333,20c-32.21661,0 -58.33334,-8.95431 -58.33334,-20c0,-11.04569 26.11673,-20 58.33334,-20c32.21661,0 58.33333,8.95431 58.33333,20z" stroke-linecap="butt"/><path d="M384.30556,110.97223h-20" stroke-linecap="round"/><path d="M378.75001,119.86111l-15,-3.33333" stroke-linecap="round"/><path d="M350.97223,124.30556l10.9375,5.55556v20" stroke-linecap="round"/><path d="M330.97222,130.41667l7.1875,6.31945v19.375" stroke-linecap="round"/><path d="M303.78472,157.98612v-20.625l0.52084,-6.38889" stroke-linecap="round"/><path d="M277.53473,156.11112v-20l7.32639,-6.25" stroke-linecap="round"/><path d="M249.40973,149.86112v-20.625l13.22916,-4.375" stroke-linecap="round"/><path d="M236.28472,142.98612v-20l18.02084,-3.125" stroke-linecap="round"/><path d="M227.08334,110.41667h20.55555" stroke-linecap="round"/><path d="M252.08334,103.19445l-19.44445,-3.33334" stroke-linecap="round"/><path d="M267.08333,95.41667l-13.33333,-6.11111" stroke-linecap="round"/><path d="M275.97222,84.30556l7.77778,6.66666" stroke-linecap="round"/><path d="M308.75001,83.19445l-0.55556,6.66666" stroke-linecap="round"/><path d="M325.97223,91.52779l7.77778,-6.66667" stroke-linecap="round"/><path d="M362.63889,91.52778l-14.44445,4.44444" stroke-linecap="round"/><path d="M363.19445,103.75001l17.22223,-2.22222" stroke-linecap="round"/></g><path d="M339.30556,111.52778c0.55556,7.95159 -25.30623,5.70587 -25.30623,5.70587c0,0 5.3373,3.46088 4.08802,4.07695c-2.63901,1.30142 -16.05283,0.21718 -22.3929,0.21718c-7.39716,0 2.19455,-4.63231 2.19455,-4.63231c0,0 -23.58344,1.43188 -23.58344,-5.92325c0,-5.04945 7.35868,-6.18192 14.25505,-8.18173c5.67517,-1.64568 14.02949,-5.70715 18.24495,-5.70715c5.30349,0 11.63943,4.16956 17.55433,5.92838c7.22787,2.14924 14.59285,3.46622 14.94567,8.51606z" fill="#e63057" stroke="#000000" stroke-width="2.5" stroke-linecap="butt"/><g fill="#312725" stroke="none" stroke-width="0" stroke-linecap="butt"><path d="M249.30556,150.41667v-20.55555l13.39344,-4.56102l19.58973,4.84327l-4.64984,6.38442v20.55555z"/><path d="M304.30556,159.30556v-20.55556l1.10756,-7.2583l25.61363,-1.5304l7.1677,5.45537l1.11111,20.55555z"/><path d="M361.52778,150.97223v-21.11111l-8.96278,-6.52115l11.73489,-6.46568l13.339,4.09794v23.33333z"/><path d="M227.08334,135.41667l0.55555,-24.44445l20.64709,-0.12959l5.30948,8.73761l-16.51213,4.16976l-0.55555,21.1111z"/><path d="M233.19445,99.30556c0,0 6.85118,-4.53669 10.66667,-6.44445c3.04746,-1.52373 10.44445,-4.11111 10.44445,-4.11111l13.33333,7.22222l-15.55555,7.22223z"/><path d="M277.63889,84.30556l31.66667,-2.22222l-0.55556,8.33333l-24.44444,0.55556z"/><path d="M333.75,83.19445l31.11111,6.66667l-15.55556,6.1111l-23.88889,-4.44444z"/><path d="M380.97222,102.08334c0,0 3.06236,2.48122 3.83284,3.85097c0.88126,1.56668 1.16716,5.03792 1.16716,5.03792l-20,-0.55556l-2.77778,-6.1111z"/></g><g fill="none" stroke="#000000" stroke-width="2.5"><path d="M385.65973,131.42362c0,15.36042 -35.5374,27.8125 -79.375,27.8125c-43.8376,0 -79.375,-12.45208 -79.375,-27.8125c0,-1.46479 -0.19663,-20.54929 -0.16523,-22.08452c0.35181,-17.20423 40.99414,-27.39465 80.65134,-27.39465c37.81174,0 75.55942,9.81961 77.98687,25.55675c0.35836,2.32327 0.27702,21.81099 0.27702,23.92241z" stroke-linecap="butt"/><path d="M226.90973,107.98612v25.625" stroke-linecap="round"/><path d="M377.53473,124.23612v17.5" stroke-linecap="round"/><path d="M385.65973,107.98612v25.625" stroke-linecap="round"/><path d="M385.65973,109.54862c0,13.99944 -29.51894,25.58308 -67.937,27.52588c-3.73487,0.18887 -7.55386,0.28663 -11.438,0.28663c-43.8376,0 -79.375,-12.45208 -79.375,-27.8125c0,-15.36042 35.5374,-27.8125 79.375,-27.8125c43.8376,0 79.375,12.45208 79.375,27.8125z" stroke-linecap="butt"/><path d="M364.86112,110.97223c0,11.04569 -26.11672,20 -58.33333,20c-32.21661,0 -58.33334,-8.95431 -58.33334,-20c0,-11.04569 26.11673,-20 58.33334,-20c32.21661,0 58.33333,8.95431 58.33333,20z" stroke-linecap="butt"/><path d="M384.30556,110.97223h-20" stroke-linecap="round"/><path d="M378.75001,119.86111l-15,-3.33333" stroke-linecap="round"/><path d="M350.97223,124.30556l10.9375,5.55556v20" stroke-linecap="round"/><path d="M330.97222,130.41667l7.1875,6.31945v19.375" stroke-linecap="round"/><path d="M303.78472,157.98612v-20.625l0.52084,-6.38889" stroke-linecap="round"/><path d="M277.53473,156.11112v-20l7.32639,-6.25" stroke-linecap="round"/><path d="M249.40973,149.86112v-20.625l13.22916,-4.375" stroke-linecap="round"/><path d="M236.28472,142.98612v-20l18.02084,-3.125" stroke-linecap="round"/><path d="M227.08334,110.41667h20.55555" stroke-linecap="round"/><path d="M252.08334,103.19445l-19.44445,-3.33334" stroke-linecap="round"/><path d="M267.08333,95.41667l-13.33333,-6.11111" stroke-linecap="round"/><path d="M275.97222,84.30556l7.77778,6.66666" stroke-linecap="round"/><path d="M308.75001,83.19445l-0.55556,6.66666" stroke-linecap="round"/><path d="M325.97223,91.52779l7.77778,-6.66667" stroke-linecap="round"/><path d="M362.63889,91.52778l-14.44445,4.44444" stroke-linecap="round"/><path d="M363.19445,103.75001l17.22223,-2.22222" stroke-linecap="round"/></g></g><g><g fill="#ffffff" stroke="none" stroke-width="0"><path d="M385.65973,104.75695c0,15.36042 -35.5374,27.8125 -79.375,27.8125c-43.8376,0 -79.375,-12.45208 -79.375,-27.8125c0,-1.46479 -0.19663,-20.54929 -0.16523,-22.08451c0.35181,-17.20422 40.99414,-27.39465 80.65134,-27.39465c37.81174,0 75.55942,9.81962 77.98687,25.55676c0.35836,2.32327 0.27702,21.81099 0.27702,23.92241z" stroke-linecap="butt"/><path d="M226.90973,81.31945v25.625" stroke-linecap="round"/><path d="M377.53473,97.56945v17.5" stroke-linecap="round"/><path d="M385.65973,81.31945v25.625" stroke-linecap="round"/><path d="M385.65973,82.88195c0,13.99944 -29.51894,25.58308 -67.937,27.52588c-3.73487,0.18887 -7.55386,0.28663 -11.438,0.28663c-43.8376,0 -79.375,-12.45208 -79.375,-27.8125c0,-15.36042 35.5374,-27.8125 79.375,-27.8125c43.8376,0 79.375,12.45208 79.375,27.8125z" stroke-linecap="butt"/><path d="M364.86112,84.30556c0,11.04569 -26.11672,20 -58.33333,20c-32.21661,0 -58.33334,-8.95431 -58.33334,-20c0,-11.04569 26.11673,-20 58.33334,-20c32.21661,0 58.33333,8.95431 58.33333,20z" stroke-linecap="butt"/><path d="M384.30556,84.30556h-20" stroke-linecap="round"/><path d="M378.75001,93.19445l-15,-3.33334" stroke-linecap="round"/><path d="M350.97223,97.63889l10.9375,5.55555v20" stroke-linecap="round"/><path d="M330.97222,103.75l7.1875,6.31945v19.375" stroke-linecap="round"/><path d="M303.78472,131.31945v-20.625l0.52084,-6.38889" stroke-linecap="round"/><path d="M277.53473,129.44445v-20l7.32639,-6.25" stroke-linecap="round"/><path d="M249.40973,123.19445v-20.625l13.22916,-4.375" stroke-linecap="round"/><path d="M236.28472,116.31945v-20l18.02084,-3.125" stroke-linecap="round"/><path d="M247.63889,83.75h-20.55555" stroke-linecap="round"/><path d="M252.08334,76.52778l-19.44445,-3.33334" stroke-linecap="round"/><path d="M267.08333,68.75l-13.33333,-6.11111" stroke-linecap="round"/><path d="M275.97222,57.63889l7.77778,6.66666" stroke-linecap="round"/><path d="M308.19445,63.19445l0.55556,-6.66667" stroke-linecap="round"/><path d="M333.75001,58.19445l-7.77778,6.66666" stroke-linecap="round"/><path d="M362.63889,64.86111l-14.44445,4.44445" stroke-linecap="round"/><path d="M363.19445,77.08334l17.22223,-2.22223" stroke-linecap="round"/></g><path d="M339.30556,84.86111c0.55556,7.95159 -25.30623,5.70587 -25.30623,5.70587c0,0 5.3373,3.46088 4.08802,4.07695c-2.63901,1.30142 -16.05283,0.21717 -22.3929,0.21717c-7.39716,0 2.19455,-4.63231 2.19455,-4.63231c0,0 -23.58344,1.43188 -23.58344,-5.92325c0,-3.38278 7.35868,-6.18193 14.25505,-8.18173c5.67517,-1.64568 14.02949,-5.70715 18.24495,-5.70715c5.30349,0 11.63943,4.16956 17.55433,5.92839c7.22787,2.14924 14.59285,3.46622 14.94567,8.51606z" fill="#e63057" stroke="#000000" stroke-width="2.5" stroke-linecap="butt"/><g fill="#312725" stroke="none" stroke-width="0" stroke-linecap="butt"><path d="M249.30556,123.75v-20.55555l13.39344,-4.56102l19.58973,4.84327l-4.64984,6.38442v20.55555z"/><path d="M304.30556,132.63889v-20.55555l1.10756,-7.25831l25.61363,-1.5304l7.1677,5.45537l1.11111,20.55555z"/><path d="M361.52778,124.30556v-21.11111l-8.96278,-6.52115l11.73489,-6.46568l13.339,4.09794v23.33333z"/><path d="M227.08334,108.75l0.55555,-24.44444l20.64709,-0.12959l5.30948,8.73761l-16.51213,4.16976l-0.55555,21.1111z"/><path d="M233.19445,72.63889c0,0 6.85118,-4.5367 10.66667,-6.44445c3.04746,-1.52373 10.44445,-4.11111 10.44445,-4.11111l13.33333,7.22222l-15.55555,7.22223z"/><path d="M277.63889,57.63889l31.66667,-2.22222l-0.55556,8.33333l-24.44444,0.55556z"/><path d="M333.75,56.52778l31.11111,6.66667l-15.55556,6.1111l-23.88889,-4.44444z"/><path d="M380.97222,75.41667c0,0 3.06236,2.48123 3.83284,3.85097c0.88126,1.56668 1.16716,5.03792 1.16716,5.03792l-20,-0.55556l-2.77778,-6.1111z"/></g><g fill="none" stroke="#000000" stroke-width="2.5"><path d="M385.65973,104.75695c0,15.36042 -35.5374,27.8125 -79.375,27.8125c-43.8376,0 -79.375,-12.45208 -79.375,-27.8125c0,-1.46479 -0.19663,-20.54929 -0.16523,-22.08451c0.35181,-17.20422 40.99414,-27.39465 80.65134,-27.39465c37.81174,0 75.55942,9.81962 77.98687,25.55676c0.35836,2.32327 0.27702,21.81099 0.27702,23.92241z" stroke-linecap="butt"/><path d="M226.90973,81.31945v25.625" stroke-linecap="round"/><path d="M377.53473,97.56945v17.5" stroke-linecap="round"/><path d="M385.65973,81.31945v25.625" stroke-linecap="round"/><path d="M385.65973,82.88195c0,13.99944 -29.51894,25.58308 -67.937,27.52588c-3.73487,0.18887 -7.55386,0.28663 -11.438,0.28663c-43.8376,0 -79.375,-12.45208 -79.375,-27.8125c0,-15.36042 35.5374,-27.8125 79.375,-27.8125c43.8376,0 79.375,12.45208 79.375,27.8125z" stroke-linecap="butt"/><path d="M364.86112,84.30556c0,11.04569 -26.11672,20 -58.33333,20c-32.21661,0 -58.33334,-8.95431 -58.33334,-20c0,-11.04569 26.11673,-20 58.33334,-20c32.21661,0 58.33333,8.95431 58.33333,20z" stroke-linecap="butt"/><path d="M384.30556,84.30556h-20" stroke-linecap="round"/><path d="M378.75001,93.19445l-15,-3.33334" stroke-linecap="round"/><path d="M350.97223,97.63889l10.9375,5.55555v20" stroke-linecap="round"/><path d="M330.97222,103.75l7.1875,6.31945v19.375" stroke-linecap="round"/><path d="M303.78472,131.31945v-20.625l0.52084,-6.38889" stroke-linecap="round"/><path d="M277.53473,129.44445v-20l7.32639,-6.25" stroke-linecap="round"/><path d="M249.40973,123.19445v-20.625l13.22916,-4.375" stroke-linecap="round"/><path d="M236.28472,116.31945v-20l18.02084,-3.125" stroke-linecap="round"/><path d="M247.63889,83.75h-20.55555" stroke-linecap="round"/><path d="M252.08334,76.52778l-19.44445,-3.33334" stroke-linecap="round"/><path d="M267.08333,68.75l-13.33333,-6.11111" stroke-linecap="round"/><path d="M275.97222,57.63889l7.77778,6.66666" stroke-linecap="round"/><path d="M308.19445,63.19445l0.55556,-6.66667" stroke-linecap="round"/><path d="M333.75001,58.19445l-7.77778,6.66666" stroke-linecap="round"/><path d="M362.63889,64.86111l-14.44445,4.44445" stroke-linecap="round"/><path d="M363.19445,77.08334l17.22223,-2.22223" stroke-linecap="round"/></g></g><g><g fill="#ffffff" stroke="none" stroke-width="0"><path d="M253.4375,269.2014c0,15.36042 -35.5374,27.8125 -79.375,27.8125c-43.8376,0 -79.375,-12.45208 -79.375,-27.8125c0,-1.46479 -0.19663,-20.54929 -0.16523,-22.08451c0.3518,-17.20423 40.99414,-27.39465 80.65134,-27.39465c37.81174,0 75.55942,9.81961 77.98687,25.55676c0.35836,2.32326 0.27702,21.81098 0.27702,23.92241z" stroke-linecap="butt"/><path d="M94.6875,271.3889v-25.625" stroke-linecap="round"/><path d="M245.3125,262.0139v17.5" stroke-linecap="round"/><path d="M253.4375,271.3889v-25.625" stroke-linecap="round"/><path d="M253.4375,247.3264c0,13.99944 -29.51894,25.58308 -67.937,27.52587c-3.73487,0.18887 -7.55385,0.28663 -11.438,0.28663c-43.8376,0 -79.375,-12.45208 -79.375,-27.8125c0,-15.36042 35.5374,-27.8125 79.375,-27.8125c43.8376,0 79.375,12.45208 79.375,27.8125z" stroke-linecap="butt"/><path d="M232.63889,248.75001c0,11.04569 -26.11673,20 -58.33334,20c-32.21661,0 -58.33333,-8.95431 -58.33333,-20c0,-11.04569 26.11672,-20 58.33333,-20c32.21661,0 58.33334,8.95431 58.33334,20z" stroke-linecap="butt"/><path d="M252.08334,248.75001h-20" stroke-linecap="round"/><path d="M246.52778,257.63889l-15,-3.33333" stroke-linecap="round"/><path d="M218.75,262.08334l10.9375,5.55555v20" stroke-linecap="round"/><path d="M198.75,268.19445l7.1875,6.31944v19.375" stroke-linecap="round"/><path d="M171.5625,295.7639v-20.625l0.52084,-6.38889" stroke-linecap="round"/><path d="M145.3125,293.8889v-20l7.32639,-6.25" stroke-linecap="round"/><path d="M117.18751,287.6389v-20.625l13.22916,-4.375" stroke-linecap="round"/><path d="M104.06251,280.7639v-20l18.02083,-3.125" stroke-linecap="round"/><path d="M115.41667,248.19445h-20.55555" stroke-linecap="round"/><path d="M119.86111,240.97223l-19.44445,-3.33334" stroke-linecap="round"/><path d="M134.86111,233.19445l-13.33333,-6.11111" stroke-linecap="round"/><path d="M151.52778,228.75001l-7.77778,-6.66667" stroke-linecap="round"/><path d="M175.97222,227.63889l0.55556,-6.66666" stroke-linecap="round"/><path d="M201.52778,222.6389l-7.77778,6.66667" stroke-linecap="round"/><path d="M230.41667,229.30556l-14.44445,4.44445" stroke-linecap="round"/><path d="M230.97222,241.52779l17.22223,-2.22222" stroke-linecap="round"/></g><path d="M207.08334,249.30556c0.55555,7.95159 -25.30623,5.70587 -25.30623,5.70587c0,0 5.3373,3.46088 4.08802,4.07696c-2.63901,1.30142 -16.05283,0.21717 -22.3929,0.21717c-7.39716,0 2.19455,-4.63231 2.19455,-4.63231c0,0 -23.58344,1.43188 -23.58344,-5.92325c0,-5.04945 7.35867,-6.18192 14.25505,-8.18173c5.67517,-1.64568 14.0295,-5.70715 18.24495,-5.70715c5.30349,0 11.63943,4.16956 17.55433,5.92838c7.22787,2.14924 14.59285,3.46622 14.94567,8.51606z" fill="#e63057" stroke="#000000" stroke-width="2.5" stroke-linecap="butt"/><g fill="#312725" stroke="none" stroke-width="0" stroke-linecap="butt"><path d="M117.08334,288.19445v-20.55556l13.39344,-4.56102l19.58973,4.84327l-4.64984,6.38442v20.55555z"/><path d="M172.08334,297.08334v-20.55556l1.10756,-7.2583l25.61363,-1.5304l7.1677,5.45537l1.11111,20.55555z"/><path d="M229.30556,288.75001v-21.11111l-8.96277,-6.52115l11.73488,-6.46568l13.339,4.09795v23.33332z"/><path d="M94.86111,273.19445l0.55555,-24.44444l20.64709,-0.1296l5.30948,8.73761l-16.51213,4.16976l-0.55555,21.11111z"/><path d="M100.97222,237.08334c0,0 6.85117,-4.5367 10.66667,-6.44445c3.04746,-1.52373 10.44445,-4.11111 10.44445,-4.11111l13.33333,7.22222l-15.55555,7.22222z"/><path d="M145.41667,222.08334l31.66667,-2.22222l-0.55556,8.33333l-24.44444,0.55556z"/><path d="M201.52778,220.97223l31.11112,6.66667l-15.55556,6.11111l-23.88889,-4.44444z"/><path d="M248.75,239.86112c0,0 3.06235,2.48123 3.83284,3.85097c0.88126,1.56668 1.16717,5.03792 1.16717,5.03792l-20.00001,-0.55556l-2.77777,-6.11111z"/></g><g fill="none" stroke="#000000" stroke-width="2.5"><path d="M253.4375,269.2014c0,15.36042 -35.5374,27.8125 -79.375,27.8125c-43.8376,0 -79.375,-12.45208 -79.375,-27.8125c0,-1.46479 -0.19663,-20.54929 -0.16523,-22.08451c0.3518,-17.20423 40.99414,-27.39465 80.65134,-27.39465c37.81174,0 75.55942,9.81961 77.98687,25.55676c0.35836,2.32326 0.27702,21.81098 0.27702,23.92241z" stroke-linecap="butt"/><path d="M94.6875,271.3889v-25.625" stroke-linecap="round"/><path d="M245.3125,262.0139v17.5" stroke-linecap="round"/><path d="M253.4375,271.3889v-25.625" stroke-linecap="round"/><path d="M253.4375,247.3264c0,13.99944 -29.51894,25.58308 -67.937,27.52587c-3.73487,0.18887 -7.55385,0.28663 -11.438,0.28663c-43.8376,0 -79.375,-12.45208 -79.375,-27.8125c0,-15.36042 35.5374,-27.8125 79.375,-27.8125c43.8376,0 79.375,12.45208 79.375,27.8125z" stroke-linecap="butt"/><path d="M232.63889,248.75001c0,11.04569 -26.11673,20 -58.33334,20c-32.21661,0 -58.33333,-8.95431 -58.33333,-20c0,-11.04569 26.11672,-20 58.33333,-20c32.21661,0 58.33334,8.95431 58.33334,20z" stroke-linecap="butt"/><path d="M252.08334,248.75001h-20" stroke-linecap="round"/><path d="M246.52778,257.63889l-15,-3.33333" stroke-linecap="round"/><path d="M218.75,262.08334l10.9375,5.55555v20" stroke-linecap="round"/><path d="M198.75,268.19445l7.1875,6.31944v19.375" stroke-linecap="round"/><path d="M171.5625,295.7639v-20.625l0.52084,-6.38889" stroke-linecap="round"/><path d="M145.3125,293.8889v-20l7.32639,-6.25" stroke-linecap="round"/><path d="M117.18751,287.6389v-20.625l13.22916,-4.375" stroke-linecap="round"/><path d="M104.06251,280.7639v-20l18.02083,-3.125" stroke-linecap="round"/><path d="M115.41667,248.19445h-20.55555" stroke-linecap="round"/><path d="M119.86111,240.97223l-19.44445,-3.33334" stroke-linecap="round"/><path d="M134.86111,233.19445l-13.33333,-6.11111" stroke-linecap="round"/><path d="M151.52778,228.75001l-7.77778,-6.66667" stroke-linecap="round"/><path d="M175.97222,227.63889l0.55556,-6.66666" stroke-linecap="round"/><path d="M201.52778,222.6389l-7.77778,6.66667" stroke-linecap="round"/><path d="M230.41667,229.30556l-14.44445,4.44445" stroke-linecap="round"/><path d="M230.97222,241.52779l17.22223,-2.22222" stroke-linecap="round"/></g></g><g><g fill="#ffffff" stroke="none" stroke-width="0"><path d="M253.4375,241.42362c0,15.36042 -35.5374,27.8125 -79.375,27.8125c-43.8376,0 -79.375,-12.45208 -79.375,-27.8125c0,-1.46479 -0.19663,-20.54929 -0.16523,-22.08452c0.3518,-17.20423 40.99414,-27.39465 80.65134,-27.39465c37.81174,0 75.55942,9.81961 77.98687,25.55675c0.35836,2.32326 0.27702,21.81099 0.27702,23.92241z" stroke-linecap="butt"/><path d="M94.6875,243.61112v-25.625" stroke-linecap="round"/><path d="M245.3125,234.23612v17.5" stroke-linecap="round"/><path d="M253.4375,243.61112v-25.625" stroke-linecap="round"/><path d="M253.4375,219.54862c0,13.99944 -29.51894,25.58308 -67.937,27.52587c-3.73487,0.18887 -7.55385,0.28663 -11.438,0.28663c-43.8376,0 -79.375,-12.45208 -79.375,-27.8125c0,-15.36042 35.5374,-27.8125 79.375,-27.8125c43.8376,0 79.375,12.45208 79.375,27.8125z" stroke-linecap="butt"/><path d="M232.63889,220.97223c0,11.04569 -26.11673,20 -58.33334,20c-32.21661,0 -58.33334,-8.95431 -58.33334,-20c0,-11.04569 26.11673,-20 58.33334,-20c32.21661,0 58.33334,8.95431 58.33334,20z" stroke-linecap="butt"/><path d="M232.08333,220.97223h20" stroke-linecap="round"/><path d="M246.52778,229.86112l-15,-3.33334" stroke-linecap="round"/><path d="M218.75,234.30556l10.9375,5.55555v20" stroke-linecap="round"/><path d="M198.75,240.41667l7.1875,6.31945v19.375" stroke-linecap="round"/><path d="M171.56249,267.98612v-20.625l0.52084,-6.38889" stroke-linecap="round"/><path d="M145.3125,266.11112v-20l7.32639,-6.25" stroke-linecap="round"/><path d="M117.18749,259.86112v-20.625l13.22917,-4.375" stroke-linecap="round"/><path d="M104.06249,252.98612v-20l18.02084,-3.125" stroke-linecap="round"/><path d="M115.41666,220.41667h-20.55555" stroke-linecap="round"/><path d="M119.86111,213.19445l-19.44445,-3.33334" stroke-linecap="round"/><path d="M134.86111,205.41667l-13.33333,-6.11111" stroke-linecap="round"/><path d="M151.52778,200.97222l-7.77778,-6.66666" stroke-linecap="round"/><path d="M176.52778,193.19445l-0.55556,6.66666" stroke-linecap="round"/><path d="M201.52778,194.86112l-7.77778,6.66666" stroke-linecap="round"/><path d="M230.41666,201.52778l-14.44445,4.44445" stroke-linecap="round"/><path d="M248.19445,211.52778l-17.22223,2.22223" stroke-linecap="round"/></g><path d="M207.08333,221.52778c0.55555,7.95159 -25.30623,5.70587 -25.30623,5.70587c0,0 5.3373,3.46088 4.08802,4.07695c-2.63901,1.30142 -16.05283,0.21717 -22.3929,0.21717c-7.39716,0 2.19455,-4.63231 2.19455,-4.63231c0,0 -23.58344,1.43188 -23.58344,-5.92325c0,-5.04945 7.35867,-6.18192 14.25505,-8.18173c5.67517,-1.64568 14.0295,-5.70715 18.24495,-5.70715c5.30349,0 11.63943,4.16956 17.55433,5.92838c7.22787,2.14924 14.59285,3.46622 14.94567,8.51606z" fill="#e63057" stroke="#000000" stroke-width="2.5" stroke-linecap="butt"/><g fill="#312725" stroke="none" stroke-width="0" stroke-linecap="butt"><path d="M117.08333,260.41667v-20.55555l13.39344,-4.56102l19.58973,4.84327l-4.64984,6.38442v20.55555z"/><path d="M172.08333,269.30556v-20.55555l1.10756,-7.25831l25.61362,-1.5304l7.1677,5.45537l1.11111,20.55555z"/><path d="M229.30555,260.97223v-21.11111l-8.96277,-6.52115l11.73488,-6.46568l13.339,4.09794v23.33333z"/><path d="M94.86111,245.41667l0.55555,-24.44444l20.64709,-0.12959l5.30948,8.73761l-16.51213,4.16977l-0.55555,21.1111z"/><path d="M100.97222,209.30556c0,0 6.85118,-4.5367 10.66667,-6.44445c3.04746,-1.52373 10.44445,-4.11111 10.44445,-4.11111l13.33333,7.22222l-15.55556,7.22223z"/><path d="M145.41666,194.30556l31.66667,-2.22222l-0.55556,8.33333l-24.44444,0.55556z"/><path d="M201.52777,193.19445l31.11112,6.66667l-15.55556,6.11111l-23.88889,-4.44444z"/><path d="M248.74999,212.08334c0,0 3.06235,2.48123 3.83284,3.85097c0.88126,1.56668 1.16717,5.03792 1.16717,5.03792l-20.00001,-0.55556l-2.77777,-6.11111z"/></g><g fill="none" stroke="#000000" stroke-width="2.5"><path d="M253.4375,241.42362c0,15.36042 -35.5374,27.8125 -79.375,27.8125c-43.8376,0 -79.375,-12.45208 -79.375,-27.8125c0,-1.46479 -0.19663,-20.54929 -0.16523,-22.08452c0.3518,-17.20423 40.99414,-27.39465 80.65134,-27.39465c37.81174,0 75.55942,9.81961 77.98687,25.55675c0.35836,2.32326 0.27702,21.81099 0.27702,23.92241z" stroke-linecap="butt"/><path d="M94.6875,243.61112v-25.625" stroke-linecap="round"/><path d="M245.3125,234.23612v17.5" stroke-linecap="round"/><path d="M253.4375,243.61112v-25.625" stroke-linecap="round"/><path d="M253.4375,219.54862c0,13.99944 -29.51894,25.58308 -67.937,27.52587c-3.73487,0.18887 -7.55385,0.28663 -11.438,0.28663c-43.8376,0 -79.375,-12.45208 -79.375,-27.8125c0,-15.36042 35.5374,-27.8125 79.375,-27.8125c43.8376,0 79.375,12.45208 79.375,27.8125z" stroke-linecap="butt"/><path d="M232.63889,220.97223c0,11.04569 -26.11673,20 -58.33334,20c-32.21661,0 -58.33334,-8.95431 -58.33334,-20c0,-11.04569 26.11673,-20 58.33334,-20c32.21661,0 58.33334,8.95431 58.33334,20z" stroke-linecap="butt"/><path d="M232.08333,220.97223h20" stroke-linecap="round"/><path d="M246.52778,229.86112l-15,-3.33334" stroke-linecap="round"/><path d="M218.75,234.30556l10.9375,5.55555v20" stroke-linecap="round"/><path d="M198.75,240.41667l7.1875,6.31945v19.375" stroke-linecap="round"/><path d="M171.56249,267.98612v-20.625l0.52084,-6.38889" stroke-linecap="round"/><path d="M145.3125,266.11112v-20l7.32639,-6.25" stroke-linecap="round"/><path d="M117.18749,259.86112v-20.625l13.22917,-4.375" stroke-linecap="round"/><path d="M104.06249,252.98612v-20l18.02084,-3.125" stroke-linecap="round"/><path d="M115.41666,220.41667h-20.55555" stroke-linecap="round"/><path d="M119.86111,213.19445l-19.44445,-3.33334" stroke-linecap="round"/><path d="M134.86111,205.41667l-13.33333,-6.11111" stroke-linecap="round"/><path d="M151.52778,200.97222l-7.77778,-6.66666" stroke-linecap="round"/><path d="M176.52778,193.19445l-0.55556,6.66666" stroke-linecap="round"/><path d="M201.52778,194.86112l-7.77778,6.66666" stroke-linecap="round"/><path d="M230.41666,201.52778l-14.44445,4.44445" stroke-linecap="round"/><path d="M248.19445,211.52778l-17.22223,2.22223" stroke-linecap="round"/></g></g><g><g fill="#ffffff" stroke="none" stroke-width="0"><path d="M253.4375,214.20139c0,15.36042 -35.5374,27.8125 -79.375,27.8125c-43.8376,0 -79.375,-12.45208 -79.375,-27.8125c0,-1.46479 -0.19663,-20.54929 -0.16523,-22.08452c0.3518,-17.20423 40.99414,-27.39465 80.65134,-27.39465c37.81174,0 75.55942,9.81961 77.98687,25.55675c0.35836,2.32326 0.27702,21.81099 0.27702,23.92241z" stroke-linecap="butt"/><path d="M94.6875,216.38889v-25.625" stroke-linecap="round"/><path d="M245.3125,207.01389v17.5" stroke-linecap="round"/><path d="M253.4375,190.76389v25.625" stroke-linecap="round"/><path d="M253.4375,192.32639c0,13.99944 -29.51894,25.58309 -67.937,27.52588c-3.73487,0.18887 -7.55385,0.28662 -11.438,0.28662c-43.8376,0 -79.375,-12.45208 -79.375,-27.8125c0,-15.36042 35.5374,-27.8125 79.375,-27.8125c43.8376,0 79.375,12.45208 79.375,27.8125z" stroke-linecap="butt"/><path d="M232.63889,193.75c0,11.04569 -26.11673,20 -58.33334,20c-32.21661,0 -58.33334,-8.95431 -58.33334,-20c0,-11.04569 26.11673,-20 58.33334,-20c32.21661,0 58.33334,8.95431 58.33334,20z" stroke-linecap="butt"/><path d="M232.08333,193.75h20" stroke-linecap="round"/><path d="M246.52778,202.6389l-15,-3.33334" stroke-linecap="round"/><path d="M218.75,207.08334l10.9375,5.55555v20" stroke-linecap="round"/><path d="M198.75,213.19445l7.1875,6.31945v19.375" stroke-linecap="round"/><path d="M171.56249,240.76389v-20.625l0.52084,-6.38889" stroke-linecap="round"/><path d="M145.3125,238.88889v-20l7.32639,-6.25" stroke-linecap="round"/><path d="M117.18749,232.63889v-20.625l13.22917,-4.375" stroke-linecap="round"/><path d="M104.06249,225.76389v-20l18.02084,-3.125" stroke-linecap="round"/><path d="M115.41666,193.19445h-20.55555" stroke-linecap="round"/><path d="M100.41666,182.63889l19.44445,3.33334" stroke-linecap="round"/><path d="M134.86111,178.19445l-13.33333,-6.11111" stroke-linecap="round"/><path d="M143.75,167.08334l7.77778,6.66666" stroke-linecap="round"/><path d="M176.52778,165.97223l-0.55556,6.66666" stroke-linecap="round"/><path d="M201.52778,167.63889l-7.77778,6.66666" stroke-linecap="round"/><path d="M215.97221,178.75001l14.44445,-4.44445" stroke-linecap="round"/><path d="M248.19445,184.30555l-17.22223,2.22223" stroke-linecap="round"/></g><path d="M207.08333,194.30556c0.55555,7.95159 -25.30623,5.70587 -25.30623,5.70587c0,0 5.3373,3.46088 4.08802,4.07695c-2.63901,1.30142 -16.05283,0.21717 -22.3929,0.21717c-7.39716,0 2.19455,-4.63231 2.19455,-4.63231c0,0 -23.58344,1.43188 -23.58344,-5.92325c0,-5.04945 7.35867,-6.18193 14.25505,-8.18173c5.67517,-1.64568 14.0295,-5.70715 18.24495,-5.70715c5.30349,0 11.63943,4.16956 17.55433,5.92839c7.22787,2.14924 14.59285,3.46622 14.94567,8.51606z" fill="#e63057" stroke="#000000" stroke-width="2.5" stroke-linecap="butt"/><g fill="#312725" stroke="none" stroke-width="0" stroke-linecap="butt"><path d="M117.08333,233.19445v-20.55555l13.39344,-4.56102l19.58973,4.84327l-4.64984,6.38442v20.55555z"/><path d="M172.08333,242.08334v-20.55555l1.10756,-7.25831l25.61362,-1.5304l7.1677,5.45537l1.11111,20.55555z"/><path d="M229.30555,233.75v-21.11111l-8.96277,-6.52115l11.73488,-6.46568l13.339,4.09795v23.33332z"/><path d="M94.86111,218.19445l0.55555,-24.44444l20.64709,-0.12959l5.30948,8.73761l-16.51213,4.16977l-0.55555,21.11111z"/><path d="M100.97222,182.08334c0,0 6.85118,-4.5367 10.66667,-6.44445c3.04746,-1.52373 10.44445,-4.11111 10.44445,-4.11111l13.33333,7.22222l-15.55556,7.22223z"/><path d="M145.41666,167.08334l31.66667,-2.22222l-0.55556,8.33333l-24.44444,0.55556z"/><path d="M201.52777,165.97223l31.11112,6.66667l-15.55556,6.11111l-23.88889,-4.44444z"/><path d="M248.74999,184.86112c0,0 3.06235,2.48122 3.83284,3.85097c0.88126,1.56668 1.16717,5.03792 1.16717,5.03792l-20.00001,-0.55556l-2.77777,-6.11111z"/></g><g fill="none" stroke="#000000" stroke-width="2.5"><path d="M253.4375,214.20139c0,15.36042 -35.5374,27.8125 -79.375,27.8125c-43.8376,0 -79.375,-12.45208 -79.375,-27.8125c0,-1.46479 -0.19663,-20.54929 -0.16523,-22.08452c0.3518,-17.20423 40.99414,-27.39465 80.65134,-27.39465c37.81174,0 75.55942,9.81961 77.98687,25.55675c0.35836,2.32326 0.27702,21.81099 0.27702,23.92241z" stroke-linecap="butt"/><path d="M94.6875,216.38889v-25.625" stroke-linecap="round"/><path d="M245.3125,207.01389v17.5" stroke-linecap="round"/><path d="M253.4375,190.76389v25.625" stroke-linecap="round"/><path d="M253.4375,192.32639c0,13.99944 -29.51894,25.58309 -67.937,27.52588c-3.73487,0.18887 -7.55385,0.28662 -11.438,0.28662c-43.8376,0 -79.375,-12.45208 -79.375,-27.8125c0,-15.36042 35.5374,-27.8125 79.375,-27.8125c43.8376,0 79.375,12.45208 79.375,27.8125z" stroke-linecap="butt"/><path d="M232.63889,193.75c0,11.04569 -26.11673,20 -58.33334,20c-32.21661,0 -58.33334,-8.95431 -58.33334,-20c0,-11.04569 26.11673,-20 58.33334,-20c32.21661,0 58.33334,8.95431 58.33334,20z" stroke-linecap="butt"/><path d="M232.08333,193.75h20" stroke-linecap="round"/><path d="M246.52778,202.6389l-15,-3.33334" stroke-linecap="round"/><path d="M218.75,207.08334l10.9375,5.55555v20" stroke-linecap="round"/><path d="M198.75,213.19445l7.1875,6.31945v19.375" stroke-linecap="round"/><path d="M171.56249,240.76389v-20.625l0.52084,-6.38889" stroke-linecap="round"/><path d="M145.3125,238.88889v-20l7.32639,-6.25" stroke-linecap="round"/><path d="M117.18749,232.63889v-20.625l13.22917,-4.375" stroke-linecap="round"/><path d="M104.06249,225.76389v-20l18.02084,-3.125" stroke-linecap="round"/><path d="M115.41666,193.19445h-20.55555" stroke-linecap="round"/><path d="M100.41666,182.63889l19.44445,3.33334" stroke-linecap="round"/><path d="M134.86111,178.19445l-13.33333,-6.11111" stroke-linecap="round"/><path d="M143.75,167.08334l7.77778,6.66666" stroke-linecap="round"/><path d="M176.52778,165.97223l-0.55556,6.66666" stroke-linecap="round"/><path d="M201.52778,167.63889l-7.77778,6.66666" stroke-linecap="round"/><path d="M215.97221,178.75001l14.44445,-4.44445" stroke-linecap="round"/><path d="M248.19445,184.30555l-17.22223,2.22223" stroke-linecap="round"/></g></g><g><g fill="#ffffff" stroke="none" stroke-width="0"><path d="M253.4375,186.97917c0,15.36042 -35.5374,27.8125 -79.375,27.8125c-43.8376,0 -79.375,-12.45208 -79.375,-27.8125c0,-1.46479 -0.19663,-20.54929 -0.16523,-22.08452c0.3518,-17.20423 40.99414,-27.39465 80.65134,-27.39465c37.81174,0 75.55942,9.81961 77.98687,25.55675c0.35836,2.32326 0.27702,21.81099 0.27702,23.92241z" stroke-linecap="butt"/><path d="M94.6875,163.54167v25.625" stroke-linecap="round"/><path d="M245.3125,197.29167v-17.5" stroke-linecap="round"/><path d="M253.4375,189.16667v-25.625" stroke-linecap="round"/><path d="M253.4375,165.10417c0,13.99944 -29.51894,25.58308 -67.937,27.52587c-3.73487,0.18887 -7.55385,0.28663 -11.438,0.28663c-43.8376,0 -79.375,-12.45208 -79.375,-27.8125c0,-15.36042 35.5374,-27.8125 79.375,-27.8125c43.8376,0 79.375,12.45208 79.375,27.8125z" stroke-linecap="butt"/><path d="M232.63889,166.52778c0,11.04569 -26.11673,20 -58.33334,20c-32.21661,0 -58.33334,-8.95431 -58.33334,-20c0,-11.04569 26.11673,-20 58.33334,-20c32.21661,0 58.33334,8.95431 58.33334,20z" stroke-linecap="butt"/><path d="M232.08334,166.52778h20" stroke-linecap="round"/><path d="M231.52778,172.08334l15,3.33334" stroke-linecap="round"/><path d="M218.75,179.86112l10.9375,5.55555v20" stroke-linecap="round"/><path d="M198.75,185.97223l7.1875,6.31945v19.375" stroke-linecap="round"/><path d="M171.5625,213.54167v-20.625l0.52084,-6.38889" stroke-linecap="round"/><path d="M145.3125,211.66667v-20l7.32639,-6.25" stroke-linecap="round"/><path d="M117.18751,205.41667v-20.625l13.22916,-4.375" stroke-linecap="round"/><path d="M104.06251,198.54167v-20l18.02083,-3.125" stroke-linecap="round"/><path d="M115.41667,165.97223h-20.55555" stroke-linecap="round"/><path d="M119.86111,158.75001l-19.44445,-3.33334" stroke-linecap="round"/><path d="M134.86111,150.97223l-13.33333,-6.11111" stroke-linecap="round"/><path d="M143.75,139.86112l7.77778,6.66667" stroke-linecap="round"/><path d="M176.52778,138.75001l-0.55556,6.66667" stroke-linecap="round"/><path d="M201.52778,140.41667l-7.77778,6.66666" stroke-linecap="round"/><path d="M230.41667,147.08334l-14.44445,4.44445" stroke-linecap="round"/><path d="M230.97222,159.30556l17.22223,-2.22223" stroke-linecap="round"/></g><path d="M207.08334,167.08334c0.55555,7.95159 -25.30623,5.70587 -25.30623,5.70587c0,0 5.3373,3.46088 4.08802,4.07695c-2.63901,1.30142 -16.05283,0.21717 -22.3929,0.21717c-7.39716,0 2.19455,-4.63231 2.19455,-4.63231c0,0 -23.58344,1.43188 -23.58344,-5.92325c0,-5.04945 7.35867,-6.18192 14.25505,-8.18173c5.67517,-1.64568 14.0295,-5.70715 18.24495,-5.70715c5.30349,0 11.63943,4.16956 17.55433,5.92838c7.22787,2.14924 14.59285,3.46622 14.94567,8.51606z" fill="#e63057" stroke="#000000" stroke-width="2.5" stroke-linecap="butt"/><g fill="#312725" stroke="none" stroke-width="0" stroke-linecap="butt"><path d="M117.08334,205.97223v-20.55555l13.39344,-4.56102l19.58973,4.84327l-4.64984,6.38442v20.55555z"/><path d="M172.08334,214.86112v-20.55555l1.10756,-7.25831l25.61363,-1.5304l7.1677,5.45537l1.11111,20.55555z"/><path d="M229.30556,206.52778v-21.11111l-8.96277,-6.52115l11.73488,-6.46568l13.339,4.09794v23.33333z"/><path d="M94.86111,190.97223l0.55555,-24.44444l20.64709,-0.12959l5.30948,8.73761l-16.51213,4.16977l-0.55555,21.1111z"/><path d="M100.97222,154.86112c0,0 6.85118,-4.5367 10.66667,-6.44445c3.04746,-1.52373 10.44444,-4.11111 10.44444,-4.11111l13.33333,7.22222l-15.55555,7.22223z"/><path d="M145.41667,139.86112l31.66667,-2.22222l-0.55556,8.33333l-24.44444,0.55556z"/><path d="M201.52778,138.75001l31.11112,6.66667l-15.55556,6.11111l-23.88889,-4.44444z"/><path d="M248.75,157.63889c0,0 3.06235,2.48123 3.83284,3.85097c0.88126,1.56668 1.16717,5.03792 1.16717,5.03792l-20.00001,-0.55556l-2.77777,-6.11111z"/></g><g fill="none" stroke="#000000" stroke-width="2.5"><path d="M253.4375,186.97917c0,15.36042 -35.5374,27.8125 -79.375,27.8125c-43.8376,0 -79.375,-12.45208 -79.375,-27.8125c0,-1.46479 -0.19663,-20.54929 -0.16523,-22.08452c0.3518,-17.20423 40.99414,-27.39465 80.65134,-27.39465c37.81174,0 75.55942,9.81961 77.98687,25.55675c0.35836,2.32326 0.27702,21.81099 0.27702,23.92241z" stroke-linecap="butt"/><path d="M94.6875,163.54167v25.625" stroke-linecap="round"/><path d="M245.3125,197.29167v-17.5" stroke-linecap="round"/><path d="M253.4375,189.16667v-25.625" stroke-linecap="round"/><path d="M253.4375,165.10417c0,13.99944 -29.51894,25.58308 -67.937,27.52587c-3.73487,0.18887 -7.55385,0.28663 -11.438,0.28663c-43.8376,0 -79.375,-12.45208 -79.375,-27.8125c0,-15.36042 35.5374,-27.8125 79.375,-27.8125c43.8376,0 79.375,12.45208 79.375,27.8125z" stroke-linecap="butt"/><path d="M232.63889,166.52778c0,11.04569 -26.11673,20 -58.33334,20c-32.21661,0 -58.33334,-8.95431 -58.33334,-20c0,-11.04569 26.11673,-20 58.33334,-20c32.21661,0 58.33334,8.95431 58.33334,20z" stroke-linecap="butt"/><path d="M232.08334,166.52778h20" stroke-linecap="round"/><path d="M231.52778,172.08334l15,3.33334" stroke-linecap="round"/><path d="M218.75,179.86112l10.9375,5.55555v20" stroke-linecap="round"/><path d="M198.75,185.97223l7.1875,6.31945v19.375" stroke-linecap="round"/><path d="M171.5625,213.54167v-20.625l0.52084,-6.38889" stroke-linecap="round"/><path d="M145.3125,211.66667v-20l7.32639,-6.25" stroke-linecap="round"/><path d="M117.18751,205.41667v-20.625l13.22916,-4.375" stroke-linecap="round"/><path d="M104.06251,198.54167v-20l18.02083,-3.125" stroke-linecap="round"/><path d="M115.41667,165.97223h-20.55555" stroke-linecap="round"/><path d="M119.86111,158.75001l-19.44445,-3.33334" stroke-linecap="round"/><path d="M134.86111,150.97223l-13.33333,-6.11111" stroke-linecap="round"/><path d="M143.75,139.86112l7.77778,6.66667" stroke-linecap="round"/><path d="M176.52778,138.75001l-0.55556,6.66667" stroke-linecap="round"/><path d="M201.52778,140.41667l-7.77778,6.66666" stroke-linecap="round"/><path d="M230.41667,147.08334l-14.44445,4.44445" stroke-linecap="round"/><path d="M230.97222,159.30556l17.22223,-2.22223" stroke-linecap="round"/></g></g></g></g></svg>